<svg width="28" height="27" viewBox="0 0 28 27" fill="none" xmlns="http://www.w3.org/2000/svg">
<path fill-rule="evenodd" clip-rule="evenodd" d="M14 1.5C11.2846 1.5 9.08334 3.70127 9.08334 6.41667V9.91667H18.9167V6.41667C18.9167 3.70127 16.7154 1.5 14 1.5ZM20.4167 9.91667V6.41667C20.4167 2.87284 17.5438 0 14 0C10.4562 0 7.58334 2.87284 7.58334 6.41667V9.91667H4.08334C3.72087 9.91667 3.41028 10.1759 3.34544 10.5325L0.512104 26.1158C0.472321 26.3346 0.531695 26.5598 0.674192 26.7306C0.81669 26.9013 1.02761 27 1.25001 27H26.75C26.9724 27 27.1833 26.9013 27.3258 26.7306C27.4683 26.5598 27.5277 26.3346 27.4879 26.1158L24.6546 10.5325C24.5897 10.1759 24.2791 9.91667 23.9167 9.91667H20.4167ZM18.9167 11.4167V14.9167C18.9167 15.3309 19.2525 15.6667 19.6667 15.6667C20.0809 15.6667 20.4167 15.3309 20.4167 14.9167V11.4167H23.2907L25.8513 25.5H2.14867L4.70927 11.4167H7.58334V14.9167C7.58334 15.3309 7.91913 15.6667 8.33334 15.6667C8.74755 15.6667 9.08334 15.3309 9.08334 14.9167V11.4167H18.9167Z" fill="#1A1A1A"/>
</svg>
