<svg width="16" height="17" viewBox="0 0 16 17" fill="none" xmlns="http://www.w3.org/2000/svg">
<path fill-rule="evenodd" clip-rule="evenodd" d="M2.75 3C2.19772 3 1.75 3.44772 1.75 4V14.5C1.75 15.0523 2.19772 15.5 2.75 15.5H13.25C13.8023 15.5 14.25 15.0523 14.25 14.5V4C14.25 3.44772 13.8023 3 13.25 3H2.75ZM0.75 4C0.75 2.89543 1.64543 2 2.75 2H13.25C14.3546 2 15.25 2.89543 15.25 4V14.5C15.25 15.6046 14.3546 16.5 13.25 16.5H2.75C1.64543 16.5 0.75 15.6046 0.75 14.5V4Z" fill="#00B307"/>
<path fill-rule="evenodd" clip-rule="evenodd" d="M11 0.5C11.2761 0.5 11.5 0.723858 11.5 1V4C11.5 4.27614 11.2761 4.5 11 4.5C10.7239 4.5 10.5 4.27614 10.5 4V1C10.5 0.723858 10.7239 0.5 11 0.5Z" fill="#00B307"/>
<path fill-rule="evenodd" clip-rule="evenodd" d="M5 0.5C5.27614 0.5 5.5 0.723858 5.5 1V4C5.5 4.27614 5.27614 4.5 5 4.5C4.72386 4.5 4.5 4.27614 4.5 4V1C4.5 0.723858 4.72386 0.5 5 0.5Z" fill="#00B307"/>
<path fill-rule="evenodd" clip-rule="evenodd" d="M0.75 7C0.75 6.72386 0.973858 6.5 1.25 6.5H14.75C15.0261 6.5 15.25 6.72386 15.25 7C15.25 7.27614 15.0261 7.5 14.75 7.5H1.25C0.973858 7.5 0.75 7.27614 0.75 7Z" fill="#00B307"/>
</svg>
