<svg width="22" height="19" viewBox="0 0 22 19" fill="none" xmlns="http://www.w3.org/2000/svg">
<path fill-rule="evenodd" clip-rule="evenodd" d="M8.25 5C8.25 4.58579 8.58579 4.25 9 4.25H18C18.4142 4.25 18.75 4.58579 18.75 5C18.75 5.41421 18.4142 5.75 18 5.75H9C8.58579 5.75 8.25 5.41421 8.25 5Z" fill="white"/>
<path fill-rule="evenodd" clip-rule="evenodd" d="M3.25 14C3.25 13.5858 3.58579 13.25 4 13.25H13C13.4142 13.25 13.75 13.5858 13.75 14C13.75 14.4142 13.4142 14.75 13 14.75H4C3.58579 14.75 3.25 14.4142 3.25 14Z" fill="white"/>
<path fill-rule="evenodd" clip-rule="evenodd" d="M5 1.75C3.20507 1.75 1.75 3.20507 1.75 5C1.75 6.79493 3.20507 8.25 5 8.25C6.79493 8.25 8.25 6.79493 8.25 5C8.25 3.20507 6.79493 1.75 5 1.75ZM0.25 5C0.25 2.37665 2.37665 0.25 5 0.25C7.62335 0.25 9.75 2.37665 9.75 5C9.75 7.62335 7.62335 9.75 5 9.75C2.37665 9.75 0.25 7.62335 0.25 5Z" fill="white"/>
<path fill-rule="evenodd" clip-rule="evenodd" d="M17 10.75C15.2051 10.75 13.75 12.2051 13.75 14C13.75 15.7949 15.2051 17.25 17 17.25C18.7949 17.25 20.25 15.7949 20.25 14C20.25 12.2051 18.7949 10.75 17 10.75ZM12.25 14C12.25 11.3766 14.3766 9.25 17 9.25C19.6234 9.25 21.75 11.3766 21.75 14C21.75 16.6234 19.6234 18.75 17 18.75C14.3766 18.75 12.25 16.6234 12.25 14Z" fill="white"/>
</svg>
