<svg width="18" height="18" viewBox="0 0 18 18" fill="none" xmlns="http://www.w3.org/2000/svg">
<path fill-rule="evenodd" clip-rule="evenodd" d="M0.0666504 1.16641C0.0666504 0.835035 0.33528 0.566406 0.66665 0.566406H8.99998C9.15911 0.566406 9.31173 0.62962 9.42425 0.742142L16.5838 7.90174C17.006 8.32643 17.243 8.90092 17.243 9.49974C17.243 10.0986 17.006 10.6731 16.5838 11.0977L16.1584 10.6748L16.5826 11.099L10.6078 17.0738C10.3974 17.2844 10.1472 17.4517 9.87215 17.5658C9.59698 17.6798 9.30202 17.7386 9.00415 17.7386C8.70628 17.7386 8.41132 17.6798 8.13615 17.5658C7.86119 17.4518 7.61138 17.2848 7.40097 17.0743M7.40097 17.0743L0.242633 9.92425C0.12996 9.81171 0.0666504 9.65899 0.0666504 9.49974V1.16641M15.7334 10.2512C15.9317 10.0514 16.043 9.78127 16.043 9.49974C16.043 9.21818 15.9316 8.94805 15.7333 8.74825L8.75146 1.76641H1.26665V9.25101L8.249 16.2252C8.34807 16.3244 8.46619 16.4036 8.59568 16.4572C8.72517 16.5109 8.86397 16.5386 9.00415 16.5386C9.14433 16.5386 9.28313 16.5109 9.41262 16.4572C9.54211 16.4036 9.65975 16.3249 9.75882 16.2257L15.7334 10.2512Z" fill="#B3B3B3"/>
<path fill-rule="evenodd" clip-rule="evenodd" d="M4.08331 5.33301C4.08331 4.91879 4.4191 4.58301 4.83331 4.58301H4.84165C5.25586 4.58301 5.59165 4.91879 5.59165 5.33301C5.59165 5.74722 5.25586 6.08301 4.84165 6.08301H4.83331C4.4191 6.08301 4.08331 5.74722 4.08331 5.33301Z" fill="#B3B3B3"/>
</svg>
