<svg width="52" height="41" viewBox="0 0 52 41" fill="none" xmlns="http://www.w3.org/2000/svg">
<path d="M48.95 0.950195H3.05C1.64172 0.950195 0.5 2.09182 0.5 3.5002V37.5002C0.5 38.9084 1.64162 40.0502 3.05 40.0502H48.95C50.3583 40.0502 51.5 38.9085 51.5 37.5002V3.5002C51.5 2.09192 50.3584 0.950195 48.95 0.950195ZM49.8 37.5003C49.8 37.9697 49.4195 38.3502 48.95 38.3502H3.05C2.58054 38.3502 2.20003 37.9697 2.20003 37.5003V3.5002C2.20003 3.03074 2.58054 2.65023 3.05 2.65023H48.95C49.4195 2.65023 49.8 3.03074 49.8 3.5002V37.5003V37.5003Z" fill="#2C742F"/>
<path d="M47.3244 4.35387C47.0998 4.33424 46.8766 4.40467 46.7039 4.5497L27.0943 21.0226C26.4619 21.5542 25.5388 21.5542 24.9064 21.0226L5.29703 4.5496C5.06444 4.35437 4.74529 4.29799 4.45991 4.40178C4.17453 4.50557 3.96614 4.7538 3.91335 5.05293C3.86056 5.35205 3.97132 5.65656 4.20391 5.85179L23.8134 22.3239C25.0773 23.388 26.9236 23.388 28.1876 22.3239L47.797 5.85189C47.9697 5.70696 48.0777 5.49938 48.0973 5.27476C48.1169 5.05014 48.0465 4.82691 47.9014 4.65429C47.7566 4.48147 47.549 4.37349 47.3244 4.35387Z" fill="#2C742F"/>
<path d="M16.8483 22.206C16.5474 22.1388 16.2338 22.2398 16.0286 22.4699L4.12856 35.2199C3.91321 35.4405 3.83412 35.7604 3.92197 36.0559C4.00983 36.3514 4.25079 36.5761 4.55161 36.6433C4.85253 36.7104 5.1661 36.6094 5.37129 36.3793L17.2713 23.6293C17.4867 23.4088 17.5658 23.0888 17.4779 22.7934C17.3901 22.4979 17.1492 22.2731 16.8483 22.206Z" fill="#2C742F"/>
<path d="M35.9709 22.4699C35.7658 22.2398 35.4521 22.1388 35.1512 22.206C34.8503 22.2731 34.6094 22.4979 34.5216 22.7934C34.4337 23.0889 34.5128 23.4088 34.7282 23.6293L46.6282 36.3793C46.9509 36.7098 47.4785 36.7222 47.8163 36.407C48.154 36.0918 48.1783 35.5647 47.8709 35.2198L35.9709 22.4699Z" fill="#2C742F"/>
</svg>
