<svg width="17" height="20" viewBox="0 0 17 20" fill="none" xmlns="http://www.w3.org/2000/svg">
<path fill-rule="evenodd" clip-rule="evenodd" d="M8.5 1.5C6.64055 1.5 4.85907 2.22532 3.54699 3.51354C2.23523 4.80146 1.5 6.54628 1.5 8.36364C1.5 11.0228 3.25394 13.559 5.10981 15.4824C6.02695 16.4328 6.94585 17.2099 7.63609 17.7496C7.9808 18.0191 8.26745 18.2285 8.46695 18.37C8.47825 18.378 8.48927 18.3858 8.5 18.3934C8.51073 18.3858 8.52175 18.378 8.53305 18.37C8.73255 18.2285 9.0192 18.0191 9.36391 17.7496C10.0542 17.2099 10.9731 16.4328 11.8902 15.4824C13.7461 13.559 15.5 11.0228 15.5 8.36364C15.5 6.54628 14.7648 4.80146 13.453 3.51354C12.1409 2.22532 10.3594 1.5 8.5 1.5ZM8.5 19C8.22617 19.4184 8.22603 19.4183 8.22587 19.4182L8.22393 19.4169L8.21897 19.4136L8.20108 19.4017C8.18567 19.3915 8.16336 19.3765 8.13462 19.3569C8.07713 19.3178 7.99387 19.2604 7.88852 19.1857C7.67787 19.0364 7.37858 18.8176 7.02016 18.5374C6.30415 17.9776 5.34805 17.1694 4.39019 16.1767C2.49606 14.2137 0.5 11.4317 0.5 8.36364C0.5 6.27508 1.34513 4.27396 2.8464 2.79998C4.34737 1.3263 6.3812 0.5 8.5 0.5C10.6188 0.5 12.6526 1.3263 14.1536 2.79998C15.6549 4.27396 16.5 6.27508 16.5 8.36364C16.5 11.4317 14.5039 14.2137 12.6098 16.1767C11.6519 17.1694 10.6958 17.9776 9.97984 18.5374C9.62142 18.8176 9.32213 19.0364 9.11148 19.1857C9.00613 19.2604 8.92287 19.3178 8.86538 19.3569C8.83664 19.3765 8.81433 19.3915 8.79892 19.4017L8.78103 19.4136L8.77607 19.4169L8.77461 19.4178C8.77444 19.4179 8.77383 19.4184 8.5 19ZM8.5 19L8.77461 19.4178C8.60829 19.5267 8.39219 19.527 8.22587 19.4182L8.5 19Z" fill="#B3B3B3"/>
<path fill-rule="evenodd" clip-rule="evenodd" d="M8.5 6.40909C7.38674 6.40909 6.5 7.29278 6.5 8.36363C6.5 9.43449 7.38674 10.3182 8.5 10.3182C9.61326 10.3182 10.5 9.43449 10.5 8.36363C10.5 7.29278 9.61326 6.40909 8.5 6.40909ZM5.5 8.36363C5.5 6.72327 6.85183 5.40909 8.5 5.40909C10.1482 5.40909 11.5 6.72327 11.5 8.36363C11.5 10.004 10.1482 11.3182 8.5 11.3182C6.85183 11.3182 5.5 10.004 5.5 8.36363Z" fill="#B3B3B3"/>
</svg>
