<svg width="14" height="17" viewBox="0 0 14 17" fill="none" xmlns="http://www.w3.org/2000/svg">
<path fill-rule="evenodd" clip-rule="evenodd" d="M6.99992 1.5999C5.49034 1.5999 4.26659 2.82366 4.26659 4.33324C4.26659 5.84281 5.49034 7.06657 6.99992 7.06657C8.5095 7.06657 9.73326 5.84281 9.73326 4.33324C9.73326 2.82366 8.5095 1.5999 6.99992 1.5999ZM3.06659 4.33324C3.06659 2.16092 4.8276 0.399902 6.99992 0.399902C9.17224 0.399902 10.9333 2.16092 10.9333 4.33324C10.9333 6.50556 9.17224 8.26657 6.99992 8.26657C4.8276 8.26657 3.06659 6.50556 3.06659 4.33324Z" fill="#B3B3B3"/>
<path fill-rule="evenodd" clip-rule="evenodd" d="M1.18102 11.0649C1.91509 10.1703 3.17991 9.56641 4.49995 9.56641H9.49995C10.8195 9.56641 12.0843 10.17 12.8184 11.0645C13.1897 11.5169 13.4429 12.067 13.4648 12.668C13.4872 13.2791 13.2678 13.8826 12.7992 14.4188L12.7992 14.4188C11.6272 15.7596 9.74033 16.5997 6.99995 16.5997C4.25964 16.5997 2.3719 15.7596 1.19987 14.4188L1.19984 14.4187C0.731378 13.8827 0.512207 13.2793 0.534608 12.6683C0.556638 12.0674 0.809749 11.5173 1.18102 11.0649ZM2.10336 13.629C1.81476 13.2988 1.72373 12.987 1.7338 12.7123C1.74425 12.4274 1.86629 12.1215 2.10867 11.8261C2.60188 11.225 3.51832 10.7664 4.49995 10.7664H9.49995C10.4812 10.7664 11.3976 11.2249 11.8908 11.8258C12.1332 12.1211 12.2552 12.427 12.2656 12.7118C12.2757 12.9866 12.1846 13.2985 11.8957 13.629C11.0077 14.6449 9.48955 15.3997 6.99995 15.3997C4.51028 15.3997 2.99136 14.6449 2.10339 13.6291" fill="#B3B3B3"/>
</svg>
