<svg width="34" height="45" viewBox="0 0 34 45" fill="none" xmlns="http://www.w3.org/2000/svg">
<path fill-rule="evenodd" clip-rule="evenodd" d="M1.65625 43.2188C1.65625 42.6665 2.10397 42.2188 2.65625 42.2188H31.3438C31.896 42.2188 32.3438 42.6665 32.3438 43.2188C32.3438 43.771 31.896 44.2188 31.3438 44.2188H2.65625C2.10397 44.2188 1.65625 43.771 1.65625 43.2188Z" fill="#2C742F"/>
<path fill-rule="evenodd" clip-rule="evenodd" d="M11.7851 12.5038C13.1682 11.1208 15.044 10.3438 17 10.3438C18.956 10.3438 20.8318 11.1208 22.2149 12.5038C23.598 13.8869 24.375 15.7628 24.375 17.7188C24.375 19.6747 23.598 21.5506 22.2149 22.9337C20.8318 24.3167 18.956 25.0938 17 25.0938C15.044 25.0938 13.1682 24.3167 11.7851 22.9337C10.402 21.5506 9.625 19.6747 9.625 17.7188C9.625 15.7628 10.402 13.8869 11.7851 12.5038ZM17 23.0938C18.4255 23.0938 19.7927 22.5275 20.8007 21.5194C21.8087 20.5114 22.375 19.1443 22.375 17.7188C22.375 16.2932 21.8087 14.9261 20.8007 13.9181C19.7927 12.91 18.4255 12.3438 17 12.3438C15.5745 12.3438 14.2073 12.91 13.1993 13.9181C12.1913 14.9261 11.625 16.2932 11.625 17.7188C11.625 19.1443 12.1913 20.5114 13.1993 21.5194C14.2073 22.5275 15.5745 23.0938 17 23.0938Z" fill="#2C742F"/>
<path fill-rule="evenodd" clip-rule="evenodd" d="M17 2.78125C13.0383 2.78125 9.23892 4.35502 6.43759 7.15634C3.63627 9.95767 2.0625 13.7571 2.0625 17.7188C2.0625 24.5306 5.85872 30.6753 9.78586 35.1915C11.7372 37.4355 13.6911 39.2432 15.1574 40.4895C15.8899 41.1121 16.4988 41.5931 16.9224 41.9168C16.949 41.9372 16.9749 41.9569 17 41.976C17.0251 41.9569 17.051 41.9372 17.0776 41.9168C17.5012 41.5931 18.1101 41.1121 18.8426 40.4895C20.3089 39.2432 22.2628 37.4355 24.2141 35.1915C28.1413 30.6753 31.9375 24.5306 31.9375 17.7188C31.9375 13.7571 30.3637 9.95767 27.5624 7.15634C24.7611 4.35502 20.9617 2.78125 17 2.78125ZM17 43.2188C16.4265 44.038 16.4262 44.0378 16.4259 44.0375L16.4248 44.0368L16.4217 44.0346L16.4111 44.0271L16.3729 44C16.3401 43.9765 16.2926 43.9423 16.2314 43.8976C16.1091 43.8083 15.932 43.6771 15.7079 43.5059C15.26 43.1635 14.6238 42.6608 13.8621 42.0134C12.3401 40.7197 10.3097 38.8418 8.27664 36.5038C4.23503 31.856 0.0625 25.2507 0.0625 17.7188C0.0625 13.2266 1.84698 8.91853 5.02338 5.74213C8.19978 2.56573 12.5079 0.78125 17 0.78125C21.4921 0.78125 25.8002 2.56573 28.9766 5.74213C32.153 8.91853 33.9375 13.2266 33.9375 17.7188C33.9375 25.2507 29.765 31.856 25.7234 36.5038C23.6903 38.8418 21.6599 40.7197 20.1379 42.0134C19.3762 42.6608 18.74 43.1635 18.2921 43.5059C18.068 43.6771 17.8909 43.8083 17.7686 43.8976C17.7074 43.9423 17.6599 43.9765 17.6271 44L17.5889 44.0271L17.5783 44.0346L17.5752 44.0368L17.5741 44.0375C17.5738 44.0378 17.5735 44.038 17 43.2188ZM17 43.2188L17.5735 44.038C17.2291 44.279 16.7709 44.279 16.4265 44.038L17 43.2188Z" fill="#2C742F"/>
</svg>
