<svg width="16" height="14" viewBox="0 0 16 14" fill="none" xmlns="http://www.w3.org/2000/svg">
<path fill-rule="evenodd" clip-rule="evenodd" d="M1.84999 1.5999V10.5249H5.99412C6.01994 10.5249 6.04574 10.5266 6.07135 10.5299L6.12004 10.537C6.09401 10.5329 6.07135 10.5299 6.07135 10.5299L6.07237 10.53L6.07369 10.5302L6.0772 10.5307L6.08752 10.5321C6.09577 10.5333 6.10683 10.5349 6.12004 10.537C6.14607 10.5412 6.18242 10.5475 6.22331 10.556C6.27944 10.5677 6.43377 10.6003 6.56663 10.6754C6.74143 10.7742 6.88765 10.9166 6.99106 11.0887L7.99973 12.7713L9.00934 11.089C9.11265 10.917 9.25884 10.7745 9.43342 10.6757C9.60799 10.5769 9.80516 10.5249 10.0058 10.5249H14.15V1.5999H1.84999ZM5.94795 11.7249H1.81249C1.50418 11.7249 1.20849 11.6024 0.990482 11.3844C0.772471 11.1664 0.649994 10.8707 0.649994 10.5624V1.5624C0.649994 1.25409 0.772472 0.958402 0.990482 0.740391C1.20849 0.52238 1.50418 0.399902 1.81249 0.399902H14.1875C14.4958 0.399902 14.7915 0.52238 15.0095 0.740391C15.2275 0.958403 15.35 1.25409 15.35 1.5624V10.5624C15.35 10.8707 15.2275 11.1664 15.0095 11.3844C14.7915 11.6024 14.4958 11.7249 14.1875 11.7249H10.0272L8.99656 13.4423C8.89328 13.6144 8.74715 13.7569 8.57248 13.8558C8.39779 13.9547 8.20047 14.0067 7.99971 14.0067C7.79896 14.0067 7.60163 13.9547 7.42694 13.8558C7.25225 13.7569 7.10615 13.6144 7.00287 13.4423L5.97659 11.7303C5.96655 11.7283 5.95678 11.7265 5.94795 11.7249Z" fill="#B3B3B3"/>
</svg>
