<svg width="19" height="16" viewBox="0 0 19 16" fill="none" xmlns="http://www.w3.org/2000/svg">
<path fill-rule="evenodd" clip-rule="evenodd" d="M2.21566 4.27799C3.70916 2.56304 6.08624 0.791016 9.5 0.791016C12.9138 0.791016 15.2908 2.56304 16.7843 4.27799C17.5312 5.13563 18.0685 5.99036 18.4193 6.63025C18.5952 6.95098 18.7254 7.21992 18.8127 7.41126C18.8564 7.50699 18.8894 7.58347 18.9121 7.63751C18.9234 7.66454 18.9321 7.68597 18.9384 7.7014L18.9458 7.72001L18.9481 7.72586L18.9489 7.7279C18.949 7.72824 18.9494 7.72935 18.25 8.00007C18.9494 8.27084 18.9493 8.27115 18.9492 8.27149L18.9481 8.27433L18.9458 8.28017L18.9383 8.29878C18.9321 8.31422 18.9234 8.33564 18.912 8.36266C18.8894 8.41669 18.8564 8.49316 18.8127 8.58887C18.7254 8.78017 18.5952 9.04905 18.4193 9.36972C18.0684 10.0095 17.5312 10.864 16.7843 11.7215C15.2908 13.4361 12.9137 15.2077 9.5 15.2077C6.08631 15.2077 3.70923 13.4361 2.21571 11.7215C1.4688 10.864 0.931556 10.0095 0.580685 9.36972C0.404815 9.04905 0.274578 8.78017 0.187295 8.58887C0.143625 8.49316 0.110624 8.41669 0.0879641 8.36266C0.0766318 8.33564 0.0678782 8.31422 0.0616629 8.29878L0.0542358 8.28017L0.0519387 8.27433L0.0511424 8.27229C0.0510117 8.27195 0.0505804 8.27084 0.749996 8.00007C0.0505602 7.72935 0.0506812 7.72903 0.0508119 7.7287L0.0519181 7.72586L0.0542149 7.72001L0.0616413 7.7014C0.0678561 7.68597 0.0766093 7.66454 0.0879411 7.63751C0.1106 7.58347 0.1436 7.50699 0.187269 7.41126C0.27455 7.21992 0.404784 6.95098 0.580651 6.63025C0.931516 5.99036 1.46876 5.13563 2.21566 4.27799ZM0.749996 8.00007L0.0508119 7.7287C-0.0166135 7.9029 -0.016858 8.09664 0.0505804 8.27084L0.749996 8.00007ZM1.56748 8.00003C1.64139 8.16014 1.75026 8.38292 1.89587 8.64841C2.20906 9.21947 2.68744 9.97932 3.34678 10.7363C4.66576 12.2505 6.66368 13.7077 9.5 13.7077C12.3363 13.7077 14.3342 12.2505 15.6532 10.7363C16.3126 9.97932 16.7909 9.21947 17.1041 8.64841C17.2497 8.38293 17.3586 8.16013 17.4325 8.00003C17.3586 7.83988 17.2497 7.61702 17.1041 7.35143C16.7909 6.78024 16.3125 6.02021 15.6532 5.2631C14.3342 3.74852 12.3362 2.29102 9.5 2.29102C6.66375 2.29102 4.66584 3.74852 3.34683 5.2631C2.68749 6.02021 2.2091 6.78024 1.8959 7.35143C1.75028 7.61702 1.6414 7.83988 1.56748 8.00003ZM18.25 8.00007L18.9492 8.27149C19.0166 8.09729 19.0169 7.90355 18.9494 7.72935L18.25 8.00007Z" fill="#1A1A1A"/>
<path fill-rule="evenodd" clip-rule="evenodd" d="M6.75996 5.25996C7.48666 4.53326 8.47229 4.125 9.5 4.125C10.5277 4.125 11.5133 4.53326 12.24 5.25996C12.9667 5.98666 13.375 6.97229 13.375 8C13.375 9.02771 12.9667 10.0133 12.24 10.74C11.5133 11.4667 10.5277 11.875 9.5 11.875C8.47229 11.875 7.48666 11.4667 6.75996 10.74C6.03326 10.0133 5.625 9.02771 5.625 8C5.625 6.97229 6.03326 5.98666 6.75996 5.25996ZM9.5 10.375C10.1299 10.375 10.734 10.1248 11.1794 9.67938C11.6248 9.23398 11.875 8.62989 11.875 8C11.875 7.37011 11.6248 6.76602 11.1794 6.32062C10.734 5.87522 10.1299 5.625 9.5 5.625C8.87011 5.625 8.26602 5.87522 7.82062 6.32062C7.37522 6.76602 7.125 7.37011 7.125 8C7.125 8.62989 7.37522 9.23398 7.82062 9.67938C8.26602 10.1248 8.87011 10.375 9.5 10.375Z" fill="#1A1A1A"/>
</svg>
