<svg width="30" height="26" viewBox="0 0 30 26" fill="none" xmlns="http://www.w3.org/2000/svg">
<path fill-rule="evenodd" clip-rule="evenodd" d="M14.837 23.9397C8.46885 20.3611 4.8694 16.761 3.11967 13.5745C1.34726 10.3466 1.4668 7.54498 2.50556 5.50708C4.61237 1.3738 10.6172 0.0491047 14.2486 4.64202L14.8369 5.38606L15.4253 4.64206C19.0573 0.0490432 25.0624 1.37385 27.1691 5.50708C28.2079 7.54497 28.3274 10.3466 26.5548 13.5745C24.805 16.761 21.2053 20.3611 14.837 23.9397ZM14.837 3.02875C10.4266 -1.66517 3.61727 0.0230279 1.16916 4.82589C-0.125416 7.36566 -0.1726 10.6952 1.80485 14.2965C3.77204 17.879 7.73575 21.7303 14.4742 25.4547L14.837 25.6552L15.1998 25.4547C21.9384 21.7303 25.9023 17.8791 27.8696 14.2965C29.8472 10.6952 29.8001 7.36568 28.5056 4.82589C26.0574 0.0229702 19.2479 -1.66513 14.837 3.02875Z" fill="#1A1A1A"/>
</svg>
