<svg width="20" height="11" viewBox="0 0 20 11" fill="none" xmlns="http://www.w3.org/2000/svg">
<path d="M5.83325 2.16667C4.9492 2.16667 4.10135 2.51786 3.47623 3.14298C2.85111 3.7681 2.49992 4.61595 2.49992 5.5C2.49992 6.38405 2.85111 7.2319 3.47623 7.85702C4.10135 8.48214 4.9492 8.83333 5.83325 8.83333H7.49992C7.72093 8.83333 7.93289 8.92113 8.08917 9.07741C8.24545 9.23369 8.33325 9.44565 8.33325 9.66667C8.33325 9.88768 8.24545 10.0996 8.08917 10.2559C7.93289 10.4122 7.72093 10.5 7.49992 10.5H5.83325C4.50717 10.5 3.2354 9.97322 2.29772 9.03553C1.36004 8.09785 0.833252 6.82608 0.833252 5.5C0.833252 4.17392 1.36004 2.90215 2.29772 1.96447C3.2354 1.02678 4.50717 0.5 5.83325 0.5H7.49992C7.72093 0.5 7.93289 0.587798 8.08917 0.744078C8.24545 0.900358 8.33325 1.11232 8.33325 1.33333C8.33325 1.55435 8.24545 1.76631 8.08917 1.92259C7.93289 2.07887 7.72093 2.16667 7.49992 2.16667H5.83325ZM11.6666 1.33333C11.6666 1.11232 11.7544 0.900358 11.9107 0.744078C12.0669 0.587798 12.2789 0.5 12.4999 0.5H14.1666C15.4927 0.5 16.7644 1.02678 17.7021 1.96447C18.6398 2.90215 19.1666 4.17392 19.1666 5.5C19.1666 6.82608 18.6398 8.09785 17.7021 9.03553C16.7644 9.97322 15.4927 10.5 14.1666 10.5H12.4999C12.2789 10.5 12.0669 10.4122 11.9107 10.2559C11.7544 10.0996 11.6666 9.88768 11.6666 9.66667C11.6666 9.44565 11.7544 9.23369 11.9107 9.07741C12.0669 8.92113 12.2789 8.83333 12.4999 8.83333H14.1666C15.0506 8.83333 15.8985 8.48214 16.5236 7.85702C17.1487 7.2319 17.4999 6.38405 17.4999 5.5C17.4999 4.61595 17.1487 3.7681 16.5236 3.14298C15.8985 2.51786 15.0506 2.16667 14.1666 2.16667H12.4999C12.2789 2.16667 12.0669 2.07887 11.9107 1.92259C11.7544 1.76631 11.6666 1.55435 11.6666 1.33333ZM5.83325 5.5C5.83325 5.27899 5.92105 5.06702 6.07733 4.91074C6.23361 4.75446 6.44557 4.66667 6.66658 4.66667H13.3333C13.5543 4.66667 13.7662 4.75446 13.9225 4.91074C14.0788 5.06702 14.1666 5.27899 14.1666 5.5C14.1666 5.72101 14.0788 5.93298 13.9225 6.08926C13.7662 6.24554 13.5543 6.33333 13.3333 6.33333H6.66658C6.44557 6.33333 6.23361 6.24554 6.07733 6.08926C5.92105 5.93298 5.83325 5.72101 5.83325 5.5Z" fill="#4D4D4D"/>
</svg>
