<svg width="12" height="12" viewBox="0 0 12 12" fill="none" xmlns="http://www.w3.org/2000/svg">
<path fill-rule="evenodd" clip-rule="evenodd" d="M5.66667 0.25C6.08088 0.25 6.41667 0.585786 6.41667 1V4.91667H10.3333C10.7475 4.91667 11.0833 5.25245 11.0833 5.66667C11.0833 6.08088 10.7475 6.41667 10.3333 6.41667H6.41667V10.3333C6.41667 10.7475 6.08088 11.0833 5.66667 11.0833C5.25245 11.0833 4.91667 10.7475 4.91667 10.3333V6.41667H1C0.585786 6.41667 0.25 6.08088 0.25 5.66667C0.25 5.25245 0.585786 4.91667 1 4.91667H4.91667V1C4.91667 0.585786 5.25245 0.25 5.66667 0.25Z" fill="#1A1A1A"/>
</svg>
