<svg width="17" height="17" viewBox="0 0 17 17" fill="none" xmlns="http://www.w3.org/2000/svg">
<path fill-rule="evenodd" clip-rule="evenodd" d="M12.0214 12.0215C12.2167 11.8262 12.5333 11.8262 12.7286 12.0215L16.3536 15.6465C16.5488 15.8417 16.5488 16.1583 16.3536 16.3536C16.1583 16.5488 15.8417 16.5488 15.6464 16.3536L12.0214 12.7286C11.8262 12.5333 11.8262 12.2167 12.0214 12.0215Z" fill="#1A1A1A"/>
<path fill-rule="evenodd" clip-rule="evenodd" d="M7.66667 1.5C4.26091 1.5 1.5 4.26091 1.5 7.66667C1.5 11.0724 4.26091 13.8333 7.66667 13.8333C11.0724 13.8333 13.8333 11.0724 13.8333 7.66667C13.8333 4.26091 11.0724 1.5 7.66667 1.5ZM0.5 7.66667C0.5 3.70863 3.70863 0.5 7.66667 0.5C11.6247 0.5 14.8333 3.70863 14.8333 7.66667C14.8333 11.6247 11.6247 14.8333 7.66667 14.8333C3.70863 14.8333 0.5 11.6247 0.5 7.66667Z" fill="#1A1A1A"/>
</svg>
