<svg width="18" height="17" viewBox="0 0 18 17" fill="none" xmlns="http://www.w3.org/2000/svg">
<path d="M9.34435 13.9012L13.285 16.3974C13.7887 16.7162 14.4137 16.2418 14.2644 15.6537L13.1262 11.1756C13.0941 11.0508 13.0978 10.9195 13.1369 10.7968C13.1761 10.6741 13.249 10.5649 13.3475 10.4818L16.8812 7.54118C17.345 7.15493 17.1062 6.38431 16.5094 6.34556L11.895 6.04556C11.7707 6.03675 11.6516 5.99283 11.5513 5.91891C11.4511 5.845 11.3739 5.74414 11.3287 5.62806L9.60748 1.29431C9.56061 1.17115 9.47741 1.06514 9.36892 0.99034C9.26042 0.915543 9.13176 0.875488 8.99998 0.875488C8.8682 0.875488 8.73953 0.915543 8.63104 0.99034C8.52254 1.06514 8.43935 1.17115 8.39248 1.29431L6.67123 5.62806C6.62617 5.74425 6.54902 5.84525 6.44877 5.91928C6.34852 5.99331 6.22929 6.03732 6.10498 6.04618L1.4906 6.34618C0.894355 6.38431 0.654355 7.15493 1.11873 7.54118L4.65248 10.4824C4.7508 10.5655 4.82371 10.6746 4.86284 10.7972C4.90198 10.9198 4.90575 11.0509 4.87373 11.1756L3.81873 15.3287C3.63935 16.0343 4.38998 16.6037 4.99373 16.2206L8.65623 13.9012C8.75917 13.8357 8.87862 13.801 9.0006 13.801C9.12258 13.801 9.24204 13.8357 9.34498 13.9012H9.34435Z" fill="#FF8A00"/>
</svg>
