<svg width="65" height="32" viewBox="0 0 65 32" fill="none" xmlns="http://www.w3.org/2000/svg">
<rect x="0.5" y="0.5" width="64" height="31" rx="4.79412" fill="#1A1A1A" stroke="#333333"/>
<g clip-path="url(#clip0_1958_15836)">
<rect width="11" height="11" transform="translate(5 4)" fill="#1A1A1A"/>
<path d="M13.7083 9.04199H7.29167C6.78541 9.04199 6.375 9.4524 6.375 9.95866V13.167C6.375 13.6733 6.78541 14.0837 7.29167 14.0837H13.7083C14.2146 14.0837 14.625 13.6733 14.625 13.167V9.95866C14.625 9.4524 14.2146 9.04199 13.7083 9.04199Z" stroke="white" stroke-width="0.916667" stroke-linecap="round" stroke-linejoin="round"/>
<path d="M8.20837 9.04199V7.20866C8.20837 6.60087 8.44982 6.01798 8.87959 5.58821C9.30936 5.15843 9.89225 4.91699 10.5 4.91699C11.1078 4.91699 11.6907 5.15843 12.1205 5.58821C12.5503 6.01798 12.7917 6.60087 12.7917 7.20866V9.04199" stroke="white" stroke-width="0.916667" stroke-linecap="round" stroke-linejoin="round"/>
</g>
<path d="M55.4455 9.75505C55.4455 9.94571 55.4345 10.1474 55.4125 10.36H50.5945C50.6312 10.954 50.8329 11.4197 51.1995 11.757C51.5735 12.087 52.0245 12.252 52.5525 12.252C52.9852 12.252 53.3445 12.153 53.6305 11.955C53.9239 11.7497 54.1292 11.4784 54.2465 11.141H55.3245C55.1632 11.7204 54.8405 12.1934 54.3565 12.56C53.8725 12.9194 53.2712 13.099 52.5525 13.099C51.9805 13.099 51.4672 12.9707 51.0125 12.714C50.5652 12.4574 50.2132 12.0944 49.9565 11.625C49.6999 11.1484 49.5715 10.5984 49.5715 9.97505C49.5715 9.35171 49.6962 8.80538 49.9455 8.33605C50.1949 7.86671 50.5432 7.50738 50.9905 7.25805C51.4452 7.00138 51.9659 6.87305 52.5525 6.87305C53.1245 6.87305 53.6305 6.99771 54.0705 7.24705C54.5105 7.49638 54.8479 7.84105 55.0825 8.28105C55.3245 8.71371 55.4455 9.20505 55.4455 9.75505ZM54.4115 9.54605C54.4115 9.16471 54.3272 8.83838 54.1585 8.56705C53.9899 8.28838 53.7589 8.07938 53.4655 7.94005C53.1795 7.79338 52.8605 7.72005 52.5085 7.72005C52.0025 7.72005 51.5699 7.88138 51.2105 8.20405C50.8585 8.52671 50.6569 8.97405 50.6055 9.54605H54.4115Z" fill="white"/>
<path d="M46.843 7.95082C47.019 7.60615 47.2684 7.33848 47.591 7.14782C47.921 6.95715 48.3207 6.86182 48.79 6.86182V7.89582H48.526C47.404 7.89582 46.843 8.50448 46.843 9.72182V12.9998H45.842V6.97182H46.843V7.95082Z" fill="white"/>
<path d="M44.152 6.97168V12.9997H43.151V12.1087C42.9603 12.4167 42.6926 12.6587 42.348 12.8347C42.0106 13.0033 41.6366 13.0877 41.226 13.0877C40.7566 13.0877 40.335 12.9923 39.961 12.8017C39.587 12.6037 39.29 12.3103 39.07 11.9217C38.8573 11.533 38.751 11.06 38.751 10.5027V6.97168H39.741V10.3707C39.741 10.9647 39.8913 11.423 40.192 11.7457C40.4926 12.061 40.9033 12.2187 41.424 12.2187C41.9593 12.2187 42.381 12.0537 42.689 11.7237C42.997 11.3937 43.151 10.9133 43.151 10.2827V6.97168H44.152Z" fill="white"/>
<path d="M31.7502 9.97505C31.7502 9.35171 31.8749 8.80905 32.1242 8.34705C32.3736 7.87771 32.7182 7.51471 33.1582 7.25805C33.6056 7.00138 34.1152 6.87305 34.6872 6.87305C35.4279 6.87305 36.0366 7.05271 36.5132 7.41205C36.9972 7.77138 37.3162 8.27005 37.4702 8.90805H36.3922C36.2896 8.54138 36.0879 8.25171 35.7872 8.03905C35.4939 7.82638 35.1272 7.72005 34.6872 7.72005C34.1152 7.72005 33.6532 7.91805 33.3012 8.31405C32.9492 8.70271 32.7732 9.25638 32.7732 9.97505C32.7732 10.701 32.9492 11.262 33.3012 11.658C33.6532 12.054 34.1152 12.252 34.6872 12.252C35.1272 12.252 35.4939 12.1494 35.7872 11.944C36.0806 11.7387 36.2822 11.4454 36.3922 11.064H37.4702C37.3089 11.68 36.9862 12.175 36.5022 12.549C36.0182 12.9157 35.4132 13.099 34.6872 13.099C34.1152 13.099 33.6056 12.9707 33.1582 12.714C32.7182 12.4574 32.3736 12.0944 32.1242 11.625C31.8749 11.1557 31.7502 10.6057 31.7502 9.97505Z" fill="white"/>
<path d="M30.803 9.75505C30.803 9.94571 30.792 10.1474 30.77 10.36H25.952C25.9886 10.954 26.1903 11.4197 26.557 11.757C26.931 12.087 27.382 12.252 27.91 12.252C28.3426 12.252 28.702 12.153 28.988 11.955C29.2813 11.7497 29.4866 11.4784 29.604 11.141H30.682C30.5206 11.7204 30.198 12.1934 29.714 12.56C29.23 12.9194 28.6286 13.099 27.91 13.099C27.338 13.099 26.8246 12.9707 26.37 12.714C25.9226 12.4574 25.5706 12.0944 25.314 11.625C25.0573 11.1484 24.929 10.5984 24.929 9.97505C24.929 9.35171 25.0536 8.80538 25.303 8.33605C25.5523 7.86671 25.9006 7.50738 26.348 7.25805C26.8026 7.00138 27.3233 6.87305 27.91 6.87305C28.482 6.87305 28.988 6.99771 29.428 7.24705C29.868 7.49638 30.2053 7.84105 30.44 8.28105C30.682 8.71371 30.803 9.20505 30.803 9.75505ZM29.769 9.54605C29.769 9.16471 29.6846 8.83838 29.516 8.56705C29.3473 8.28838 29.1163 8.07938 28.823 7.94005C28.537 7.79338 28.218 7.72005 27.866 7.72005C27.36 7.72005 26.9273 7.88138 26.568 8.20405C26.216 8.52671 26.0143 8.97405 25.963 9.54605H29.769Z" fill="white"/>
<path d="M21.278 13.0769C20.772 13.0769 20.3173 12.9889 19.914 12.8129C19.518 12.6296 19.2063 12.3802 18.979 12.0649C18.7516 11.7422 18.6343 11.3719 18.627 10.9539H19.694C19.7306 11.3132 19.8773 11.6176 20.134 11.8669C20.398 12.1089 20.7793 12.2299 21.278 12.2299C21.7546 12.2299 22.1286 12.1126 22.4 11.8779C22.6786 11.6359 22.818 11.3279 22.818 10.9539C22.818 10.6606 22.7373 10.4222 22.576 10.2389C22.4146 10.0556 22.213 9.91622 21.971 9.82089C21.729 9.72555 21.4026 9.62289 20.992 9.51289C20.486 9.38089 20.079 9.24889 19.771 9.11689C19.4703 8.98489 19.21 8.77955 18.99 8.50089C18.7773 8.21489 18.671 7.83355 18.671 7.35689C18.671 6.93889 18.7773 6.56855 18.99 6.24589C19.2026 5.92322 19.4996 5.67389 19.881 5.49789C20.2696 5.32189 20.7133 5.23389 21.212 5.23389C21.9306 5.23389 22.5173 5.41355 22.972 5.77289C23.434 6.13222 23.6943 6.60889 23.753 7.20289H22.653C22.6163 6.90955 22.4623 6.65289 22.191 6.43289C21.9196 6.20555 21.5603 6.09189 21.113 6.09189C20.695 6.09189 20.354 6.20189 20.09 6.42189C19.826 6.63455 19.694 6.93522 19.694 7.32389C19.694 7.60255 19.771 7.82989 19.925 8.00589C20.0863 8.18189 20.2806 8.31755 20.508 8.41289C20.7426 8.50089 21.069 8.60355 21.487 8.72089C21.993 8.86022 22.4 8.99955 22.708 9.13889C23.016 9.27089 23.28 9.47989 23.5 9.76589C23.72 10.0446 23.83 10.4259 23.83 10.9099C23.83 11.2839 23.731 11.6359 23.533 11.9659C23.335 12.2959 23.0416 12.5636 22.653 12.7689C22.2643 12.9742 21.806 13.0769 21.278 13.0769Z" fill="white"/>
<path d="M58.2645 20.732V23.948C58.2645 24.172 58.3165 24.336 58.4205 24.44C58.5325 24.536 58.7165 24.584 58.9725 24.584H59.7525V26H58.6965C57.2805 26 56.5725 25.312 56.5725 23.936V20.732H55.7805V19.352H56.5725V17.708H58.2645V19.352H59.7525V20.732H58.2645Z" fill="white"/>
<path d="M52.0589 19.2559C52.8509 19.2559 53.4909 19.5079 53.9789 20.0119C54.4669 20.5079 54.7109 21.2039 54.7109 22.0999V25.9999H53.0309V22.3279C53.0309 21.7999 52.8989 21.3959 52.6349 21.1159C52.3709 20.8279 52.0109 20.6839 51.5549 20.6839C51.0909 20.6839 50.7229 20.8279 50.4509 21.1159C50.1869 21.3959 50.0549 21.7999 50.0549 22.3279V25.9999H48.3749V19.3519H50.0549V20.1799C50.2789 19.8919 50.5629 19.6679 50.9069 19.5079C51.2589 19.3399 51.6429 19.2559 52.0589 19.2559Z" fill="white"/>
<path d="M47.1486 22.5321C47.1486 22.7721 47.1326 22.9881 47.1006 23.1801H42.2406C42.2806 23.6601 42.4486 24.0361 42.7446 24.3081C43.0406 24.5801 43.4046 24.7161 43.8366 24.7161C44.4606 24.7161 44.9046 24.4481 45.1686 23.9121H46.9806C46.7886 24.5521 46.4206 25.0801 45.8766 25.4961C45.3326 25.9041 44.6646 26.1081 43.8726 26.1081C43.2326 26.1081 42.6566 25.9681 42.1446 25.6881C41.6406 25.4001 41.2446 24.9961 40.9566 24.4761C40.6766 23.9561 40.5366 23.3561 40.5366 22.6761C40.5366 21.9881 40.6766 21.3841 40.9566 20.8641C41.2366 20.3441 41.6286 19.9441 42.1326 19.6641C42.6366 19.3841 43.2166 19.2441 43.8726 19.2441C44.5046 19.2441 45.0686 19.3801 45.5646 19.6521C46.0686 19.9241 46.4566 20.3121 46.7286 20.8161C47.0086 21.3121 47.1486 21.8841 47.1486 22.5321ZM45.4086 22.0521C45.4006 21.6201 45.2446 21.2761 44.9406 21.0201C44.6366 20.7561 44.2646 20.6241 43.8246 20.6241C43.4086 20.6241 43.0566 20.7521 42.7686 21.0081C42.4886 21.2561 42.3166 21.6041 42.2526 22.0521H45.4086Z" fill="white"/>
<path d="M36.6504 19.2559C37.4664 19.2559 38.1224 19.5079 38.6184 20.0119C39.1224 20.5079 39.3744 21.2039 39.3744 22.0999V25.9999H37.6944V22.3279C37.6944 21.8079 37.5624 21.4119 37.2984 21.1399C37.0344 20.8599 36.6744 20.7199 36.2184 20.7199C35.7624 20.7199 35.3984 20.8599 35.1264 21.1399C34.8624 21.4119 34.7304 21.8079 34.7304 22.3279V25.9999H33.0504V22.3279C33.0504 21.8079 32.9184 21.4119 32.6544 21.1399C32.3904 20.8599 32.0304 20.7199 31.5744 20.7199C31.1104 20.7199 30.7424 20.8599 30.4704 21.1399C30.2064 21.4119 30.0744 21.8079 30.0744 22.3279V25.9999H28.3944V19.3519H30.0744V20.1559C30.2904 19.8759 30.5664 19.6559 30.9024 19.4959C31.2464 19.3359 31.6224 19.2559 32.0304 19.2559C32.5504 19.2559 33.0144 19.3679 33.4224 19.5919C33.8304 19.8079 34.1464 20.1199 34.3704 20.5279C34.5864 20.1439 34.8984 19.8359 35.3064 19.6039C35.7224 19.3719 36.1704 19.2559 36.6504 19.2559Z" fill="white"/>
<path d="M27.4888 19.3521L23.3728 29.1441H21.5848L23.0248 25.8321L20.3608 19.3521H22.2448L23.9608 23.9961L25.7008 19.3521H27.4888Z" fill="white"/>
<path d="M12.564 22.6521C12.564 21.9801 12.696 21.3841 12.96 20.8641C13.232 20.3441 13.596 19.9441 14.052 19.6641C14.516 19.3841 15.032 19.2441 15.6 19.2441C16.096 19.2441 16.528 19.3441 16.896 19.5441C17.272 19.7441 17.572 19.9961 17.796 20.3001V19.3521H19.488V26.0001H17.796V25.0281C17.58 25.3401 17.28 25.6001 16.896 25.8081C16.52 26.0081 16.084 26.1081 15.588 26.1081C15.028 26.1081 14.516 25.9641 14.052 25.6761C13.596 25.3881 13.232 24.9841 12.96 24.4641C12.696 23.9361 12.564 23.3321 12.564 22.6521ZM17.796 22.6761C17.796 22.2681 17.716 21.9201 17.556 21.6321C17.396 21.3361 17.18 21.1121 16.908 20.9601C16.636 20.8001 16.344 20.7201 16.032 20.7201C15.72 20.7201 15.432 20.7961 15.168 20.9481C14.904 21.1001 14.688 21.3241 14.52 21.6201C14.36 21.9081 14.28 22.2521 14.28 22.6521C14.28 23.0521 14.36 23.4041 14.52 23.7081C14.688 24.0041 14.904 24.2321 15.168 24.3921C15.44 24.5521 15.728 24.6321 16.032 24.6321C16.344 24.6321 16.636 24.5561 16.908 24.4041C17.18 24.2441 17.396 24.0201 17.556 23.7321C17.716 23.4361 17.796 23.0841 17.796 22.6761Z" fill="white"/>
<path d="M11.8032 20.216C11.8032 20.664 11.6952 21.084 11.4792 21.476C11.2712 21.868 10.9392 22.184 10.4832 22.424C10.0352 22.664 9.46719 22.784 8.77919 22.784H7.37519V26H5.69519V17.624H8.77919C9.42719 17.624 9.97919 17.736 10.4352 17.96C10.8912 18.184 11.2312 18.492 11.4552 18.884C11.6872 19.276 11.8032 19.72 11.8032 20.216ZM8.70719 21.428C9.17119 21.428 9.51519 21.324 9.73919 21.116C9.96319 20.9 10.0752 20.6 10.0752 20.216C10.0752 19.4 9.61919 18.992 8.70719 18.992H7.37519V21.428H8.70719Z" fill="white"/>
<defs>
<clipPath id="clip0_1958_15836">
<rect width="11" height="11" fill="white" transform="translate(5 4)"/>
</clipPath>
</defs>
</svg>
