<svg width="38" height="40" viewBox="0 0 38 40" fill="none" xmlns="http://www.w3.org/2000/svg">
<path d="M35.4905 0.538949C35.4372 0.343152 35.3046 0.178413 35.1246 0.0846357C34.7694 -0.103321 34.329 0.032269 34.141 0.387478C34.1405 0.388382 34.14 0.389287 34.1396 0.390192C34.1396 0.410294 30.4528 7.56272 19.1352 8.80906C17.6589 8.96657 16.2158 9.35173 14.8574 9.95088C12.4259 11.008 10.4178 12.8477 9.15233 15.1775C7.97092 17.3659 7.48162 19.8614 7.74919 22.3339C7.94629 24.1363 8.54826 25.8709 9.51015 27.4078C7.49992 28.8511 1.12345 33.8405 0.548517 39.1958C0.506302 39.5954 0.796178 39.9537 1.19581 39.9959C1.59555 40.0381 1.95367 39.7482 1.99589 39.3486C2.52257 34.5682 8.50504 29.9326 10.3705 28.5898C12.6099 31.3398 15.963 32.8917 19.5613 33.145C21.9832 33.3013 24.4079 32.8883 26.6414 31.9389C29.0659 30.9216 31.2072 29.3308 32.8812 27.3032C37.1951 22.0766 39.2496 13.2919 35.4905 0.538949ZM10.7887 26.6881C10.5113 26.2512 10.2667 25.7943 10.0569 25.3211C9.61549 24.3228 9.33074 23.2624 9.21264 22.1771C8.96638 19.9995 9.38693 17.7984 10.4188 15.865C11.5341 13.8152 13.3032 12.1975 15.4444 11.2696C16.6685 10.7366 17.9677 10.3962 19.296 10.2605C26.766 9.45636 31.1604 6.13143 33.428 3.71914C32.0957 8.10538 29.8019 12.1393 26.7138 15.5273L26.2715 11.0726C26.249 10.6713 25.9054 10.3643 25.5042 10.3868C25.103 10.4093 24.7959 10.7529 24.8184 11.1541C24.8195 11.1739 24.8214 11.1937 24.8241 11.2133L25.391 16.9385C22.0098 20.3679 17.3099 23.8135 10.7887 26.6881ZM31.7554 26.3705V26.3745C30.2345 28.2262 28.2863 29.6806 26.0785 30.6121C24.0483 31.4701 21.8448 31.8391 19.6458 31.6896C16.5845 31.5345 13.7118 30.1639 11.6651 27.8822C14.0635 26.8209 16.3826 25.5888 18.6045 24.1954L24.993 25.4016C25.39 25.4638 25.7623 25.1923 25.8245 24.7953C25.8845 24.4123 25.6338 24.0495 25.2543 23.9703L20.3453 23.0415C22.612 21.4848 24.7219 19.7115 26.6454 17.7466C26.6807 17.7162 26.713 17.6826 26.7419 17.6461C31.8157 12.3632 33.9747 7.13655 34.8753 3.92017C37.36 14.5181 35.4583 21.8917 31.7554 26.3705Z" fill="#00B307"/>
</svg>
