<svg width="34" height="36" viewBox="0 0 34 36" fill="none" xmlns="http://www.w3.org/2000/svg">
<path d="M29.3165 13.6891V12.305C29.3165 8.99244 28.1443 5.91429 26.0191 3.63025C23.8409 1.28571 20.8459 0 17.5787 0H16.4367C13.1695 0 10.1745 1.28571 7.99636 3.63025C5.87115 5.91429 4.69888 8.99244 4.69888 12.305V13.6891C2.11989 13.863 0.0703125 16.0109 0.0703125 18.6353V20.7983C0.0703125 23.5286 2.29384 25.7521 5.02409 25.7521H7.81485C8.31401 25.7521 8.72241 25.3437 8.72241 24.8445V14.5815C8.72241 14.0824 8.31401 13.674 7.81485 13.674H6.51401V12.305C6.51401 6.32269 10.7796 1.81513 16.4291 1.81513H17.5712C23.2283 1.81513 27.4863 6.32269 27.4863 12.305V13.674H26.1854C25.6863 13.674 25.2779 14.0824 25.2779 14.5815V24.837C25.2779 25.3361 25.6863 25.7445 26.1854 25.7445H27.456C27.0854 30.479 23.8258 31.5756 22.3132 31.8252C21.8972 30.5471 20.6947 29.6244 19.2804 29.6244H17.0115C15.2569 29.6244 13.8275 31.0538 13.8275 32.8084C13.8275 34.563 15.2569 36 17.0115 36H19.288C20.7552 36 21.988 35.0017 22.3585 33.6555C23.0997 33.5496 24.272 33.2849 25.4367 32.6042C27.0779 31.6437 29.0216 29.6849 29.2787 25.737C31.8728 25.5782 33.93 23.4227 33.93 20.7908V18.6277C33.9375 16.0109 31.8955 13.8555 29.3165 13.6891ZM6.92241 23.9294H5.03922C3.30729 23.9294 1.90056 22.5227 1.90056 20.7908V18.6277C1.90056 16.8958 3.30729 15.4891 5.03922 15.4891H6.92241V23.9294ZM19.288 34.1849H17.0115C16.2552 34.1849 15.6426 33.5723 15.6426 32.816C15.6426 32.0597 16.2552 31.4471 17.0115 31.4471H19.288C20.0443 31.4471 20.6569 32.0597 20.6569 32.816C20.6569 33.5723 20.0443 34.1849 19.288 34.1849ZM32.1224 20.7908C32.1224 22.5227 30.7157 23.9294 28.9838 23.9294H27.1006V15.4891H28.9838C30.7157 15.4891 32.1224 16.8958 32.1224 18.6277V20.7908Z" fill="#00B307"/>
</svg>
