<svg width="30" height="36" viewBox="0 0 30 36" fill="none" xmlns="http://www.w3.org/2000/svg">
<path d="M29.3819 31.201L27.3103 7.85427C27.273 7.39226 26.8855 7.04202 26.4161 7.04202H22.0493C22.0418 3.15959 18.8822 0 14.9998 0C11.1174 0 7.95777 3.15959 7.95032 7.04202H3.58352C3.12151 7.04202 2.73401 7.39226 2.6893 7.85427L0.617676 31.201C0.617676 31.2308 0.617676 31.2532 0.617676 31.283C0.617676 33.8837 3.00973 36 5.94577 36H24.0538C26.9899 36 29.3819 33.8837 29.3819 31.283C29.3819 31.2532 29.3819 31.2308 29.3819 31.201ZM14.9998 1.78845C17.8986 1.78845 20.2534 4.14324 20.2608 7.04202H9.73877C9.74622 4.14324 12.101 1.78845 14.9998 1.78845ZM24.0538 34.2041H5.94577C4.00828 34.2041 2.42848 32.9149 2.40613 31.3128L4.40323 8.83047H7.95032V11.9677C7.95032 12.4595 8.35272 12.8619 8.84454 12.8619C9.33637 12.8619 9.73877 12.4595 9.73877 11.9677V8.83047H20.2608V11.9677C20.2608 12.4595 20.6632 12.8619 21.155 12.8619C21.6469 12.8619 22.0493 12.4595 22.0493 11.9677V8.83047H25.5964L27.5935 31.3202C27.5711 32.9149 25.9913 34.2041 24.0538 34.2041Z" fill="#00B307"/>
<path d="M18.7183 18.6145L13.4424 23.8904L11.2888 21.7369C10.9385 21.3866 10.3722 21.3866 10.022 21.7369C9.67172 22.0871 9.67172 22.6534 10.022 23.0037L12.809 25.7907C12.9803 25.9621 13.2114 26.0515 13.4424 26.0515C13.6734 26.0515 13.8969 25.9621 14.0758 25.7907L19.9851 19.8813C20.3353 19.5311 20.3353 18.9648 19.9851 18.6145C19.6349 18.2717 19.0685 18.2717 18.7183 18.6145Z" fill="#00B307"/>
</svg>
