<svg width="40" height="28" viewBox="0 0 40 28" fill="none" xmlns="http://www.w3.org/2000/svg">
<path d="M32.7021 20.3041C31.7247 20.3041 30.7962 20.687 30.0957 21.3793C29.3952 22.0798 29.0043 22.992 29.0043 23.9694C29.0043 24.9468 29.3871 25.859 30.0957 26.5595C30.8043 27.2518 31.7247 27.6346 32.7021 27.6346C34.7058 27.6346 36.3348 25.9893 36.3348 23.9694C36.3348 21.9494 34.7058 20.3041 32.7021 20.3041ZM32.7021 26.0056C31.5781 26.0056 30.6333 25.0771 30.6333 23.9694C30.6333 22.8617 31.5781 21.9331 32.7021 21.9331C33.8098 21.9331 34.7058 22.8454 34.7058 23.9694C34.7058 25.0934 33.8098 26.0056 32.7021 26.0056ZM33.6469 8.09482C33.5003 7.95635 33.3048 7.88305 33.1012 7.88305H28.9228C28.4749 7.88305 28.1083 8.24957 28.1083 8.69755V15.3764C28.1083 15.8244 28.4749 16.1909 28.9228 16.1909H35.5528C36.0008 16.1909 36.3673 15.8244 36.3673 15.3764V10.9048C36.3673 10.6768 36.2696 10.4569 36.0986 10.3021L33.6469 8.09482ZM34.7383 14.5619H29.7373V9.5039H32.7835L34.7383 11.2632V14.5619ZM12.8121 20.3041C11.8347 20.3041 10.9061 20.687 10.2057 21.3793C9.50519 22.0798 9.11423 22.992 9.11423 23.9694C9.11423 24.9468 9.49705 25.859 10.2057 26.5595C10.9143 27.2518 11.8347 27.6346 12.8121 27.6346C14.8157 27.6346 16.4447 25.9893 16.4447 23.9694C16.4447 21.9494 14.8157 20.3041 12.8121 20.3041ZM12.8121 26.0056C11.688 26.0056 10.7432 25.0771 10.7432 23.9694C10.7432 22.8617 11.688 21.9331 12.8121 21.9331C13.9198 21.9331 14.8157 22.8454 14.8157 23.9694C14.8157 25.0934 13.9198 26.0056 12.8121 26.0056ZM7.37935 21.306H5.74221V19.1394C5.74221 18.6914 5.37569 18.3249 4.92771 18.3249C4.47974 18.3249 4.11322 18.6914 4.11322 19.1394V22.1205C4.11322 22.5684 4.47974 22.935 4.92771 22.935H7.37935C7.82733 22.935 8.19385 22.5684 8.19385 22.1205C8.19385 21.6725 7.82733 21.306 7.37935 21.306ZM11.5089 16.867C11.5089 16.419 11.1423 16.0525 10.6944 16.0525H0.814498C0.366524 16.0525 0 16.419 0 16.867C0 17.3149 0.366524 17.6815 0.814498 17.6815H10.6944C11.1423 17.6815 11.5089 17.3231 11.5089 16.867ZM2.46793 13.9266L12.3478 13.9836C12.7958 13.9836 13.1623 13.6253 13.1704 13.1773C13.1786 12.7212 12.8121 12.3546 12.3641 12.3546L2.48422 12.2976C2.47607 12.2976 2.47607 12.2976 2.47607 12.2976C2.0281 12.2976 1.66158 12.656 1.66158 13.104C1.65343 13.5601 2.01996 13.9266 2.46793 13.9266ZM4.12951 10.2288H14.0094C14.4573 10.2288 14.8239 9.86228 14.8239 9.41431C14.8239 8.96633 14.4573 8.59981 14.0094 8.59981H4.12951C3.68153 8.59981 3.31501 8.96633 3.31501 9.41431C3.31501 9.86228 3.68153 10.2288 4.12951 10.2288ZM39.6986 9.12923L33.8668 4.29926C33.7202 4.17708 33.541 4.11193 33.3456 4.11193H26.4875V1.17973C26.4875 0.731759 26.121 0.365234 25.673 0.365234H4.92771C4.47974 0.365234 4.11322 0.731759 4.11322 1.17973V7.14186C4.11322 7.58983 4.47974 7.95636 4.92771 7.95636C5.37569 7.95636 5.74221 7.58983 5.74221 7.14186V1.99423H24.8666V21.306H18.1877C17.7398 21.306 17.3732 21.6725 17.3732 22.1205C17.3732 22.5684 17.7398 22.935 18.1877 22.935H28.1328C28.5807 22.935 28.9473 22.5684 28.9473 22.1205C28.9473 21.6725 28.5807 21.306 28.1328 21.306H26.4956V5.74092H33.0605L38.371 10.1392L38.314 21.2897H37.4669C37.0189 21.2897 36.6524 21.6562 36.6524 22.1042C36.6524 22.5522 37.0189 22.9187 37.4669 22.9187H39.1203C39.5683 22.9187 39.9348 22.5603 39.9348 22.1123L40 9.76454C39.9919 9.52019 39.886 9.28399 39.6986 9.12923Z" fill="#00B307"/>
</svg>
