<svg width="34" height="36" viewBox="0 0 34 36" fill="none" xmlns="http://www.w3.org/2000/svg">
<path d="M33.5561 8.48713C33.5561 8.35036 33.5257 8.21359 33.465 8.08442C33.3434 7.82609 33.1078 7.65133 32.8495 7.59814L17.3721 0.0911777C17.1213 -0.0303926 16.825 -0.0303926 16.5743 0.0911777L0.944896 7.66653C0.640971 7.81089 0.443419 8.11482 0.428223 8.45673V8.46433C0.428223 8.47193 0.428223 8.47953 0.428223 8.49472V27.5053C0.428223 27.8548 0.625774 28.1739 0.944896 28.3259L16.5743 35.9012C16.5819 35.9012 16.5819 35.9012 16.5895 35.9088C16.6123 35.9164 16.6351 35.924 16.6579 35.9392C16.6655 35.9392 16.6731 35.9468 16.6882 35.9468C16.711 35.9544 16.7338 35.962 16.7566 35.9696C16.7642 35.9696 16.7718 35.9772 16.7794 35.9772C16.8022 35.9848 16.8326 35.9848 16.8554 35.9924C16.863 35.9924 16.8706 35.9924 16.8782 35.9924C16.9086 35.9924 16.9466 36 16.977 36C17.0074 36 17.0454 36 17.0758 35.9924C17.0834 35.9924 17.091 35.9924 17.0985 35.9924C17.1213 35.9924 17.1517 35.9848 17.1745 35.9772C17.1821 35.9772 17.1897 35.9696 17.1973 35.9696C17.2201 35.962 17.2429 35.9544 17.2657 35.9468C17.2733 35.9468 17.2809 35.9392 17.2961 35.9392C17.3189 35.9316 17.3417 35.924 17.3645 35.9088C17.3721 35.9088 17.3721 35.9088 17.3797 35.9012L33.0546 28.3031C33.3662 28.1511 33.5713 27.832 33.5713 27.4825V8.50992C33.5561 8.50232 33.5561 8.49472 33.5561 8.48713ZM16.9694 1.92233L30.5245 8.49472L25.5325 10.9185L11.9774 4.34614L16.9694 1.92233ZM16.9694 15.0671L3.41429 8.49472L9.88791 5.35669L23.443 11.9291L16.9694 15.0671ZM2.25178 9.96117L16.0576 16.6551V33.6218L2.25178 26.9278V9.96117ZM17.8812 33.6218V16.6551L24.3624 13.5095V17.9468C24.3624 18.4483 24.7727 18.8586 25.2742 18.8586C25.7756 18.8586 26.1859 18.4483 26.1859 17.9468V12.6205L31.7326 9.93077V26.8974L17.8812 33.6218Z" fill="#00B307"/>
</svg>
